<svg width="165" height="165" version="1.1" viewBox="0 0 135.47 135.47" xmlns="http://www.w3.org/2000/svg" xmlns:xlink="http://www.w3.org/1999/xlink">
 <defs>
  <linearGradient id="linearGradient3929" x1="6.4512" x2="6.6864" y1="3.0632" y2="-8.6508" gradientTransform="matrix(2.7767 0 0 2.733 -.89503 -.382)" gradientUnits="userSpaceOnUse">
   <stop stop-color="#efd590" offset="0"/>
   <stop stop-color="#e6be54" stop-opacity="0" offset="1"/>
  </linearGradient>
 </defs>
 <g display="none">
  <g stroke-width=".72886">
   <rect transform="scale(1,-1)" x="1.3578" y="-15.524" width="15.621" height="15.068" fill="#eed286" fill-opacity=".83529"/>
   <rect x="17.018" y=".45565" width="15.621" height="15.068" fill="url(#linearGradient3929)"/>
   <rect transform="scale(1,-1)" x="1.3592" y="-30.627" width="15.621" height="15.068" fill="#efd38b" fill-opacity=".91765"/>
   <rect transform="scale(1,-1)" x="17.016" y="-30.625" width="15.621" height="15.068" fill="#efd590" fill-opacity=".99608"/>
  </g>
  <g fill="#d2ac57">
   <rect x=".42264" y="32.612" width="33.031" height=".87484" display="inline" stroke-width=".73547"/>
   <rect x=".41139" y="30.722" width="33.031" height=".87484" display="inline" stroke-width=".73547"/>
   <g stroke-width=".72886">
    <rect x=".59813" y="31.418" width=".67058" height="1.1799" display="inline"/>
    <rect x="16.62" y="31.419" width=".67058" height="1.1799" display="inline"/>
    <rect x="32.549" y="31.42" width=".67058" height="1.1799" display="inline"/>
   </g>
  </g>
 </g>
 <g transform="translate(-1.1015 .3089)">
  <g fill="#ff0">
   <g fill-rule="evenodd">
    <path transform="matrix(5.8987 0 0 5.9553 -50.105 -14.283)" d="m20.934 2.8202-11.973 3.1066 0.038459 8.9536 11.967-4.4402v-0.001302-7.4426h-0.031889l-7.88e-4 -0.17607z" fill="#e6ce92"/>
    <path transform="matrix(5.8999 0 0 5.9551 -50.133 -14.279)" d="m20.934 2.8201 0.001226 0.28602v7.3324h0.031445v0.001562l10.345 6.677-0.041429-9.6585-10.336-4.6384z" fill="#e5ca8b"/>
    <path transform="matrix(5.8987 0 0 5.9553 -50.105 -14.291)" d="m21.357 10.277-0.25371 0.09146-0.088746-0.054928-0.070961 0.11255-6.8308 2.4626 0.030574 0.083217-5.1441 1.9086 8.806 9.695 13.506-7.4583-9.5992-6.1956 2.6636 1.6486 0.079985-0.12678-3.2308-1.9997 0.17083-0.061523-0.038722-0.10517z" fill="#e3c989"/>
   </g>
   <g fill="#f9f9f9" stroke-width="2.1754">
    <path d="m113.12 45.119a7.0834 7.0854 0 0 1-8.928 4.5442 7.0834 7.0854 0 0 1-4.543-8.9304 7.0834 7.0854 0 0 1 8.9278-4.5445 7.0834 7.0854 0 0 1 4.5434 8.9302l-6.7356-2.1927z"/>
    <path d="m92.605 45.006a7.0834 7.0854 0 0 1-8.9279 4.5442 7.0834 7.0854 0 0 1-4.543-8.9304 7.0834 7.0854 0 0 1 8.9278-4.5445 7.0834 7.0854 0 0 1 4.5434 8.9302l-6.7356-2.1927z"/>
    <path d="m72.925 45.258a7.0834 7.0854 0 0 1-8.9279 4.5442 7.0834 7.0854 0 0 1-4.543-8.9304 7.0834 7.0854 0 0 1 8.9278-4.5445 7.0834 7.0854 0 0 1 4.5434 8.9302l-6.7356-2.1927z"/>
   </g>
   <path d="m52.777 50.185a22.899 23.389 0 0 1-25.405 15.853 22.899 23.389 0 0 1-19.268-23.181 22.899 23.389 0 0 1 19.438-23.033 22.899 23.389 0 0 1 25.288 16.048l-21.827 7.0728z" fill="#ff0" stroke-width="7.1064"/>
   <path transform="matrix(5.8987 0 0 5.9553 -50.105 -14.283)" d="m17.805 24.575-0.051054-11.906-8.7932-6.7423 0.038393 8.9535z" points="17.754392,12.669142 8.9611579,5.9267987 8.9995507,14.880306 17.805446,24.575271 " fill="#e3c989" fill-rule="evenodd"/>
   <path transform="matrix(5.8987 0 0 5.9553 -50.105 -14.283)" d="m31.312 17.117-13.506 7.4582-0.05105-11.906 13.516-5.2106z" points="17.805446,24.575271 17.754392,12.669142 31.270192,7.4585666 31.311607,17.117042 " fill="#dfc47c" fill-rule="evenodd"/>
  </g>
 </g>
</svg>
